<?xml version="1.0" encoding="UTF-8" standalone="no"?>
<svg
   width="24"
   height="24"
   viewBox="0 0 24 24"
   fill="none"
   version="1.1"
   id="svg1"
   sodipodi:docname="reports.svg"
   inkscape:version="1.3.2 (091e20e, 2023-11-25, custom)"
   xmlns:inkscape="http://www.inkscape.org/namespaces/inkscape"
   xmlns:sodipodi="http://sodipodi.sourceforge.net/DTD/sodipodi-0.dtd"
   xmlns="http://www.w3.org/2000/svg"
   xmlns:svg="http://www.w3.org/2000/svg">
  <defs
     id="defs1" />
  <sodipodi:namedview
     id="namedview1"
     pagecolor="#ffffff"
     bordercolor="#000000"
     borderopacity="0.25"
     inkscape:showpageshadow="2"
     inkscape:pageopacity="0.0"
     inkscape:pagecheckerboard="0"
     inkscape:deskcolor="#d1d1d1"
     inkscape:zoom="12.725"
     inkscape:cx="0.19646365"
     inkscape:cy="13.870334"
     inkscape:window-width="1366"
     inkscape:window-height="705"
     inkscape:window-x="-8"
     inkscape:window-y="-8"
     inkscape:window-maximized="1"
     inkscape:current-layer="svg1" />
  <path
     id="rect2"
     style="fill:#ffffff;stroke-width:1.11496"
     d="M -0.078125 -0.15625 L -0.078125 24.046875 L 24.125 24.046875 L 24.125 -0.15625 L -0.078125 -0.15625 z M 12 2 C 13.299999 2 14.400313 2.8400012 14.820312 4 L 19 4 C 20.099999 4 21 4.9000011 21 6 L 21 20 C 21 21.099999 20.099999 22 19 22 L 5 22 C 3.9000011 22 3 21.099999 3 20 L 3 6 C 3 4.9000011 3.9000011 4 5 4 L 9.1796875 4 C 9.5996871 2.8400012 10.700001 2 12 2 z M 12 4 C 11.450001 4 11 4.4500006 11 5 C 11 5.5499994 11.450001 6 12 6 C 12.549999 6 13 5.5499994 13 5 C 13 4.4500006 12.549999 4 12 4 z M 7 8 L 7 10 L 17 10 L 17 8 L 7 8 z M 7 12 L 7 14 L 17 14 L 17 12 L 7 12 z M 7 16 L 7 18 L 14 18 L 14 16 L 7 16 z " />
</svg>
