<?xml version="1.0" encoding="UTF-8" standalone="no"?>
<svg
   width="24"
   height="24"
   viewBox="0 0 24 24"
   fill="none"
   version="1.1"
   id="svg1"
   sodipodi:docname="store.svg"
   inkscape:version="1.3.2 (091e20e, 2023-11-25, custom)"
   xmlns:inkscape="http://www.inkscape.org/namespaces/inkscape"
   xmlns:sodipodi="http://sodipodi.sourceforge.net/DTD/sodipodi-0.dtd"
   xmlns="http://www.w3.org/2000/svg"
   xmlns:svg="http://www.w3.org/2000/svg">
  <defs
     id="defs1" />
  <sodipodi:namedview
     id="namedview1"
     pagecolor="#ffffff"
     bordercolor="#000000"
     borderopacity="0.25"
     inkscape:showpageshadow="2"
     inkscape:pageopacity="0.0"
     inkscape:pagecheckerboard="0"
     inkscape:deskcolor="#d1d1d1"
     inkscape:zoom="21.208333"
     inkscape:cx="12"
     inkscape:cy="12"
     inkscape:window-width="1366"
     inkscape:window-height="705"
     inkscape:window-x="-8"
     inkscape:window-y="-8"
     inkscape:window-maximized="1"
     inkscape:current-layer="svg1" />
  <path
     id="rect1"
     style="fill:#ffffff;stroke-width:1.11496"
     d="M -0.046875 -0.046875 L -0.046875 24.09375 L 24.09375 24.09375 L 24.09375 -0.046875 L -0.046875 -0.046875 z M 2.25 3 L 12.234375 3 L 12.234375 6.9980469 L 21.75 6.9980469 L 21.75 21 L 2.25 21 L 2.25 3 z M 4.2460938 4.9960938 L 4.2460938 6.9980469 L 6.2441406 6.9980469 L 6.2441406 4.9960938 L 4.2460938 4.9960938 z M 8.2402344 4.9960938 L 8.2402344 6.9980469 L 10.238281 6.9980469 L 10.238281 4.9960938 L 8.2402344 4.9960938 z M 4.2460938 9 L 4.2460938 11.001953 L 6.2441406 11.001953 L 6.2441406 9 L 4.2460938 9 z M 8.2402344 9 L 8.2402344 11.001953 L 10.238281 11.001953 L 10.238281 9 L 8.2402344 9 z M 12.234375 9 L 12.234375 10.996094 L 14.230469 10.996094 L 14.230469 12.998047 L 12.234375 12.998047 L 12.234375 15 L 14.230469 15 L 14.230469 16.996094 L 12.234375 16.996094 L 12.234375 18.998047 L 19.753906 18.998047 L 19.753906 9 L 12.234375 9 z M 15.994141 11.001953 L 17.990234 11.001953 L 17.990234 13.003906 L 15.994141 13.003906 L 15.994141 11.001953 z M 4.2460938 12.998047 L 4.2460938 15 L 6.2441406 15 L 6.2441406 12.998047 L 4.2460938 12.998047 z M 8.2402344 12.998047 L 8.2402344 15 L 10.238281 15 L 10.238281 12.998047 L 8.2402344 12.998047 z M 15.994141 15 L 17.990234 15 L 17.990234 17.001953 L 15.994141 17.001953 L 15.994141 15 z M 4.2460938 16.996094 L 4.2460938 18.998047 L 6.2441406 18.998047 L 6.2441406 16.996094 L 4.2460938 16.996094 z M 8.2402344 16.996094 L 8.2402344 18.998047 L 10.238281 18.998047 L 10.238281 16.996094 L 8.2402344 16.996094 z " />
</svg>
