<?xml version="1.0" encoding="UTF-8" standalone="no"?>
<svg
   width="24"
   height="24"
   viewBox="0 0 24 24"
   fill="none"
   version="1.1"
   id="svg1"
   sodipodi:docname="users.svg"
   inkscape:version="1.3.2 (091e20e, 2023-11-25, custom)"
   xmlns:inkscape="http://www.inkscape.org/namespaces/inkscape"
   xmlns:sodipodi="http://sodipodi.sourceforge.net/DTD/sodipodi-0.dtd"
   xmlns="http://www.w3.org/2000/svg"
   xmlns:svg="http://www.w3.org/2000/svg">
  <defs
     id="defs1" />
  <sodipodi:namedview
     id="namedview1"
     pagecolor="#ffffff"
     bordercolor="#000000"
     borderopacity="0.25"
     inkscape:showpageshadow="2"
     inkscape:pageopacity="0.0"
     inkscape:pagecheckerboard="0"
     inkscape:deskcolor="#d1d1d1"
     inkscape:zoom="12.854191"
     inkscape:cx="4.084271"
     inkscape:cy="19.332216"
     inkscape:window-width="1366"
     inkscape:window-height="705"
     inkscape:window-x="-8"
     inkscape:window-y="-8"
     inkscape:window-maximized="1"
     inkscape:current-layer="svg1" />
  <path
     id="rect1"
     style="fill:#ffffff;stroke-width:1.11496"
     d="M -0.078125 -0.078125 L -0.078125 24.195312 L 24.117188 24.195312 L 24.117188 -0.078125 L -0.078125 -0.078125 z M 8 5 C 9.6599983 5 10.990234 6.3400017 10.990234 8 C 10.990234 9.6599983 9.6599983 11 8 11 C 6.3400017 11 5 9.6599983 5 8 C 5 6.3400017 6.3400017 5 8 5 z M 16 5 C 17.659998 5 18.990234 6.3400017 18.990234 8 C 18.990234 9.6599983 17.659998 11 16 11 C 14.340002 11 13 9.6599983 13 8 C 13 6.3400017 14.340002 5 16 5 z M 8 13 C 10.329998 13 15 14.170002 15 16.5 L 15 19 L 1 19 L 1 16.5 C 1 14.170002 5.6700023 13 8 13 z M 16 13 C 18.329998 13 23 14.170002 23 16.5 L 23 19 L 17 19 L 17 16.5 C 17 15.020001 16.189296 13.89078 15.029297 13.050781 C 15.379297 13.020781 15.71 13 16 13 z " />
</svg>
