<?xml version="1.0" encoding="UTF-8" standalone="no"?>
<svg
   width="24"
   height="24"
   viewBox="0 0 24 24"
   fill="none"
   version="1.1"
   id="svg1"
   sodipodi:docname="vendor.svg"
   inkscape:version="1.3.2 (091e20e, 2023-11-25, custom)"
   xmlns:inkscape="http://www.inkscape.org/namespaces/inkscape"
   xmlns:sodipodi="http://sodipodi.sourceforge.net/DTD/sodipodi-0.dtd"
   xmlns="http://www.w3.org/2000/svg"
   xmlns:svg="http://www.w3.org/2000/svg">
  <defs
     id="defs1" />
  <sodipodi:namedview
     id="namedview1"
     pagecolor="#ffffff"
     bordercolor="#000000"
     borderopacity="0.25"
     inkscape:showpageshadow="2"
     inkscape:pageopacity="0.0"
     inkscape:pagecheckerboard="0"
     inkscape:deskcolor="#d1d1d1"
     inkscape:zoom="17.995868"
     inkscape:cx="5.3623422"
     inkscape:cy="13.419748"
     inkscape:window-width="1366"
     inkscape:window-height="705"
     inkscape:window-x="-8"
     inkscape:window-y="-8"
     inkscape:window-maximized="1"
     inkscape:current-layer="svg1" />
  <path
     id="rect1"
     style="fill:#ffffff;stroke-width:1.11496"
     d="M -0.078125 -0.078125 L -0.078125 24.125 L 24.125 24.125 L 24.125 -0.078125 L -0.078125 -0.078125 z M 10.902344 2.25 L 13.097656 2.25 L 13.636719 3.75 L 10.363281 3.75 L 10.902344 2.25 z M 3 4.5 L 21 4.5 C 21.4125 4.5 21.75 4.8375008 21.75 5.25 L 21.75 17.25 C 21.75 17.6625 21.4125 18 21 18 L 2.9902344 18 C 2.5730472 18 2.25 17.6625 2.25 17.25 L 2.25 5.25 C 2.25 4.8375008 2.5875008 4.5 3 4.5 z M 4.5 6.75 L 4.5 15.75 L 19.5 15.75 L 19.5 6.75 L 4.5 6.75 z M 6 8.3007812 L 18 8.3007812 L 18 14.300781 L 6 14.300781 L 6 8.3007812 z M 4.8320312 18.75 L 7.4765625 18.75 L 6.421875 21.75 L 3.75 21.75 L 4.8320312 18.75 z M 10.875 18.75 L 13.125 18.75 L 13.125 20.25 L 10.875 20.25 L 10.875 18.75 z M 16.523438 18.75 L 19.171875 18.75 L 20.25 21.75 L 17.578125 21.75 L 16.523438 18.75 z " />
</svg>
